<svg viewBox="0 0 94 20" fill="none" xmlns="http://www.w3.org/2000/svg">
<path d="M28.0578 0H32.4466C32.6598 0 32.8626 0.0936014 33.003 0.254804L39.0038 7.18131C39.529 7.76372 40.7769 9.36014 41.2709 10.057L41.4165 9.99975C41.3853 8.92334 41.3853 7.73252 41.3853 7.18131V0.738411C41.3853 0.332805 41.7181 0 42.1237 0H46.4865C46.8973 0 47.2301 0.332805 47.2301 0.738411V19.2611C47.2301 19.6719 46.8973 19.9995 46.4917 19.9995H42.1289C41.9157 19.9995 41.7129 19.9059 41.5725 19.7499L34.7866 12.007C34.1158 11.253 33.6842 10.6134 33.2734 10.031L33.1278 10.0882C33.159 10.8422 33.159 11.6586 33.159 12.007V19.2611C33.159 19.6719 32.8262 19.9995 32.4206 19.9995H28.0578C27.647 19.9995 27.3194 19.6667 27.3194 19.2611V0.738411C27.3142 0.332805 27.647 0 28.0578 0Z" fill="currentColor"/>
<path d="M54.8613 0.738411C54.8613 0.332805 55.1941 0 55.5997 0H67.3881C71.8393 0 74.1325 3.02125 74.1325 6.3961C74.1325 8.72573 73.0457 10.6498 71.3141 11.8718C71.0177 12.0798 70.9241 12.475 71.0905 12.7974L74.1793 18.9283C74.4289 19.4223 74.0701 19.9995 73.5189 19.9995H67.9861C67.6949 19.9995 67.4349 19.8279 67.3153 19.5679L64.4605 13.2862H61.2937V19.2611C61.2937 19.6719 60.9609 19.9995 60.5553 19.9995H55.6101C55.1993 19.9995 54.8717 19.6667 54.8717 19.2611V0.738411H54.8613ZM65.7917 8.83494C66.7797 8.83494 67.5961 7.96132 67.5961 6.6561C67.5961 5.46528 66.8109 4.56567 65.7917 4.56567H61.2885V8.84014H65.7917V8.83494Z" fill="currentColor"/>
<path d="M76.6769 0H92.4952C92.906 0 93.2336 0.332805 93.2336 0.738411V4.05606C93.2336 4.46687 92.9008 4.79447 92.4952 4.79447H82.3604V7.55572H90.9248C91.3356 7.55572 91.6632 7.88852 91.6632 8.29413V11.409C91.6632 11.8198 91.3304 12.1474 90.9248 12.1474H82.3604V15.1998H92.698C93.1088 15.1998 93.4364 15.5326 93.4364 15.9382V19.2559C93.4364 19.6667 93.1036 19.9943 92.698 19.9943H76.6769C76.2661 19.9943 75.9385 19.6615 75.9385 19.2559V0.738411C75.9385 0.332805 76.2713 0 76.6769 0Z" fill="currentColor"/>
<path d="M15.6111 0.000489175L10.4996 0.000488281C4.97719 0.000487316 0.500001 4.47775 0.5 10.0002C0.499999 15.5227 4.97718 20 10.4996 20L15.6111 20C21.1335 20 25.6107 15.5227 25.6107 10.0002C25.6107 4.47776 21.1335 0.000490141 15.6111 0.000489175Z" fill="currentColor"/>
</svg>